<svg xmlns="http://www.w3.org/2000/svg" viewBox="0 0 751.99 1182.35"><defs><style>.cls-1{fill:#fff;}.cls-1,.cls-2,.cls-3,.cls-5{stroke:#000;}.cls-1,.cls-2,.cls-5{stroke-linecap:round;}.cls-1,.cls-5{stroke-linejoin:round;}.cls-2,.cls-3,.cls-4,.cls-5{fill:none;}.cls-2,.cls-3,.cls-4{stroke-miterlimit:10;}.cls-2{stroke-width:0.5px;}.cls-4{stroke:#fff;}.cls-5{stroke-width:2px;}</style></defs><g id="Layer_2" data-name="Layer 2"><g id="PROJECTS"><g id="PinBoard"><rect id="Pin_Board_Background" data-name="Pin Board Background" x="1" y="29.06" width="721.21" height="1152"/><polygon id="White_3D_Shadow" data-name="White 3D Shadow" class="cls-1" points="30.28 0.5 1 29.88 722.21 29.88 722.21 1181.06 751.49 1151.68 751.49 0.5 30.28 0.5"/><g id="Pin_Board_Texture" data-name="Pin Board Texture"><polyline class="cls-2" points="736.85 235.31 736.85 14.78 627.81 14.78"/><polyline class="cls-2" points="731.18 117.69 731.18 20.31 649.08 20.31"/><polyline class="cls-2" points="741.19 171.69 741.19 10.54 594.81 10.54"/><polyline class="cls-2" points="746.34 138.54 746.34 5.53 609.97 5.53"/><polyline class="cls-2" points="726.5 72.03 726.5 24.87 669.13 24.87"/><line class="cls-2" x1="16.36" y1="14.47" x2="108.28" y2="14.47"/><line class="cls-2" x1="20.23" y1="10.59" x2="96.79" y2="10.59"/><line class="cls-2" x1="737.33" y1="1165.89" x2="737.33" y2="1050.67"/><line class="cls-2" x1="740.79" y1="1162.42" x2="740.79" y2="1115.7"/><line class="cls-2" x1="748.49" y1="1154.69" x2="748.49" y2="1020.05"/><line class="cls-2" x1="727.4" y1="1175.85" x2="727.4" y2="1149.23"/><line class="cls-3" x1="722.21" y1="29.06" x2="751.49" y2="0.5"/></g><g id="White_Grid" data-name="White Grid"><rect class="cls-4" x="1" y="29.06" width="72" height="72.79"/><rect class="cls-4" x="73" y="29.06" width="72" height="72.79"/><rect class="cls-4" x="145" y="29.06" width="72" height="72.79"/><rect class="cls-4" x="217" y="29.06" width="72" height="72.79"/><rect class="cls-4" x="289" y="29.06" width="72" height="72.79"/><rect class="cls-4" x="361" y="29.06" width="72" height="72.79"/><rect class="cls-4" x="433" y="29.06" width="72" height="72.79"/><rect class="cls-4" x="505" y="29.06" width="72" height="72.79"/><rect class="cls-4" x="577" y="29.06" width="72" height="72.79"/><rect class="cls-4" x="649" y="29.06" width="72.93" height="72.79"/><rect class="cls-4" x="1" y="101.85" width="72" height="72"/><rect class="cls-4" x="73" y="101.85" width="72" height="72"/><rect class="cls-4" x="145" y="101.85" width="72" height="72"/><rect class="cls-4" x="217" y="101.85" width="72" height="72"/><rect class="cls-4" x="289" y="101.85" width="72" height="72"/><rect class="cls-4" x="361" y="101.85" width="72" height="72"/><rect class="cls-4" x="433" y="101.85" width="72" height="72"/><rect class="cls-4" x="505" y="101.85" width="72" height="72"/><rect class="cls-4" x="577" y="101.85" width="72" height="72"/><rect class="cls-4" x="649" y="101.85" width="72.93" height="72"/><rect class="cls-4" x="1" y="173.85" width="72" height="72"/><rect class="cls-4" x="73" y="173.85" width="72" height="72"/><rect class="cls-4" x="145" y="173.85" width="72" height="72"/><rect class="cls-4" x="217" y="173.85" width="72" height="72"/><rect class="cls-4" x="289" y="173.85" width="72" height="72"/><rect class="cls-4" x="361" y="173.85" width="72" height="72"/><rect class="cls-4" x="433" y="173.85" width="72" height="72"/><rect class="cls-4" x="505" y="173.85" width="72" height="72"/><rect class="cls-4" x="577" y="173.85" width="72" height="72"/><rect class="cls-4" x="649" y="173.85" width="72.93" height="72"/><rect class="cls-4" x="1" y="245.85" width="72" height="72"/><rect class="cls-4" x="73" y="245.85" width="72" height="72"/><rect class="cls-4" x="145" y="245.85" width="72" height="72"/><rect class="cls-4" x="217" y="245.85" width="72" height="72"/><rect class="cls-4" x="289" y="245.85" width="72" height="72"/><rect class="cls-4" x="361" y="245.85" width="72" height="72"/><rect class="cls-4" x="433" y="245.85" width="72" height="72"/><rect class="cls-4" x="505" y="245.85" width="72" height="72"/><rect class="cls-4" x="577" y="245.85" width="72" height="72"/><rect class="cls-4" x="649" y="245.85" width="72.93" height="72"/><rect class="cls-4" x="1" y="317.85" width="72" height="72"/><rect class="cls-4" x="73" y="317.85" width="72" height="72"/><rect class="cls-4" x="145" y="317.85" width="72" height="72"/><rect class="cls-4" x="217" y="317.85" width="72" height="72"/><rect class="cls-4" x="289" y="317.85" width="72" height="72"/><rect class="cls-4" x="361" y="317.85" width="72" height="72"/><rect class="cls-4" x="433" y="317.85" width="72" height="72"/><rect class="cls-4" x="505" y="317.85" width="72" height="72"/><rect class="cls-4" x="577" y="317.85" width="72" height="72"/><rect class="cls-4" x="649" y="317.85" width="72.93" height="72"/><rect class="cls-4" x="1" y="389.85" width="72" height="72"/><rect class="cls-4" x="73" y="389.85" width="72" height="72"/><rect class="cls-4" x="145" y="389.85" width="72" height="72"/><rect class="cls-4" x="217" y="389.85" width="72" height="72"/><rect class="cls-4" x="289" y="389.85" width="72" height="72"/><rect class="cls-4" x="361" y="389.85" width="72" height="72"/><rect class="cls-4" x="433" y="389.85" width="72" height="72"/><rect class="cls-4" x="505" y="389.85" width="72" height="72"/><rect class="cls-4" x="577" y="389.85" width="72" height="72"/><rect class="cls-4" x="649" y="389.85" width="72.93" height="72"/><rect class="cls-4" x="1" y="461.85" width="72" height="72"/><rect class="cls-4" x="73" y="461.85" width="72" height="72"/><rect class="cls-4" x="145" y="461.85" width="72" height="72"/><rect class="cls-4" x="217" y="461.85" width="72" height="72"/><rect class="cls-4" x="289" y="461.85" width="72" height="72"/><rect class="cls-4" x="361" y="461.85" width="72" height="72"/><rect class="cls-4" x="433" y="461.85" width="72" height="72"/><rect class="cls-4" x="505" y="461.85" width="72" height="72"/><rect class="cls-4" x="577" y="461.85" width="72" height="72"/><rect class="cls-4" x="649" y="461.85" width="72.93" height="72"/><rect class="cls-4" x="1" y="533.85" width="72" height="72"/><rect class="cls-4" x="73" y="533.85" width="72" height="72"/><rect class="cls-4" x="145" y="533.85" width="72" height="72"/><rect class="cls-4" x="217" y="533.85" width="72" height="72"/><rect class="cls-4" x="289" y="533.85" width="72" height="72"/><rect class="cls-4" x="361" y="533.85" width="72" height="72"/><rect class="cls-4" x="433" y="533.85" width="72" height="72"/><rect class="cls-4" x="505" y="533.85" width="72" height="72"/><rect class="cls-4" x="577" y="533.85" width="72" height="72"/><rect class="cls-4" x="649" y="533.85" width="72.93" height="72"/><rect class="cls-4" x="1" y="605.85" width="72" height="72"/><rect class="cls-4" x="73" y="605.85" width="72" height="72"/><rect class="cls-4" x="145" y="605.85" width="72" height="72"/><rect class="cls-4" x="217" y="605.85" width="72" height="72"/><rect class="cls-4" x="289" y="605.85" width="72" height="72"/><rect class="cls-4" x="361" y="605.85" width="72" height="72"/><rect class="cls-4" x="433" y="605.85" width="72" height="72"/><rect class="cls-4" x="505" y="605.85" width="72" height="72"/><rect class="cls-4" x="577" y="605.85" width="72" height="72"/><rect class="cls-4" x="649" y="605.85" width="72.93" height="72"/><rect class="cls-4" x="1" y="677.85" width="72" height="72"/><rect class="cls-4" x="73" y="677.85" width="72" height="72"/><rect class="cls-4" x="145" y="677.85" width="72" height="72"/><rect class="cls-4" x="217" y="677.85" width="72" height="72"/><rect class="cls-4" x="289" y="677.85" width="72" height="72"/><rect class="cls-4" x="361" y="677.85" width="72" height="72"/><rect class="cls-4" x="433" y="677.85" width="72" height="72"/><rect class="cls-4" x="505" y="677.85" width="72" height="72"/><rect class="cls-4" x="577" y="677.85" width="72" height="72"/><rect class="cls-4" x="649" y="677.85" width="72.93" height="72"/><rect class="cls-4" x="1" y="749.85" width="72" height="72"/><rect class="cls-4" x="73" y="749.85" width="72" height="72"/><rect class="cls-4" x="145" y="749.85" width="72" height="72"/><rect class="cls-4" x="217" y="749.85" width="72" height="72"/><rect class="cls-4" x="289" y="749.85" width="72" height="72"/><rect class="cls-4" x="361" y="749.85" width="72" height="72"/><rect class="cls-4" x="433" y="749.85" width="72" height="72"/><rect class="cls-4" x="505" y="749.85" width="72" height="72"/><rect class="cls-4" x="577" y="749.85" width="72" height="72"/><rect class="cls-4" x="649" y="749.85" width="72.93" height="72"/><rect class="cls-4" x="1" y="821.85" width="72" height="72"/><rect class="cls-4" x="73" y="821.85" width="72" height="72"/><rect class="cls-4" x="145" y="821.85" width="72" height="72"/><rect class="cls-4" x="217" y="821.85" width="72" height="72"/><rect class="cls-4" x="289" y="821.85" width="72" height="72"/><rect class="cls-4" x="361" y="821.85" width="72" height="72"/><rect class="cls-4" x="433" y="821.85" width="72" height="72"/><rect class="cls-4" x="505" y="821.85" width="72" height="72"/><rect class="cls-4" x="577" y="821.85" width="72" height="72"/><rect class="cls-4" x="649" y="821.85" width="72.93" height="72"/><rect class="cls-4" x="1" y="893.85" width="72" height="72"/><rect class="cls-4" x="73" y="893.85" width="72" height="72"/><rect class="cls-4" x="145" y="893.85" width="72" height="72"/><rect class="cls-4" x="217" y="893.85" width="72" height="72"/><rect class="cls-4" x="289" y="893.85" width="72" height="72"/><rect class="cls-4" x="361" y="893.85" width="72" height="72"/><rect class="cls-4" x="433" y="893.85" width="72" height="72"/><rect class="cls-4" x="505" y="893.85" width="72" height="72"/><rect class="cls-4" x="577" y="893.85" width="72" height="72"/><rect class="cls-4" x="649" y="893.85" width="72.93" height="72"/><rect class="cls-4" x="1" y="965.85" width="72" height="72"/><rect class="cls-4" x="73" y="965.85" width="72" height="72"/><rect class="cls-4" x="145" y="965.85" width="72" height="72"/><rect class="cls-4" x="217" y="965.85" width="72" height="72"/><rect class="cls-4" x="289" y="965.85" width="72" height="72"/><rect class="cls-4" x="361" y="965.85" width="72" height="72"/><rect class="cls-4" x="433" y="965.85" width="72" height="72"/><rect class="cls-4" x="505" y="965.85" width="72" height="72"/><rect class="cls-4" x="577" y="965.85" width="72" height="72"/><rect class="cls-4" x="649" y="965.85" width="72.93" height="72"/><rect class="cls-4" x="1" y="1037.85" width="72" height="72"/><rect class="cls-4" x="73" y="1037.85" width="72" height="72"/><rect class="cls-4" x="145" y="1037.85" width="72" height="72"/><rect class="cls-4" x="217" y="1037.85" width="72" height="72"/><rect class="cls-4" x="289" y="1037.85" width="72" height="72"/><rect class="cls-4" x="361" y="1037.85" width="72" height="72"/><rect class="cls-4" x="433" y="1037.85" width="72" height="72"/><rect class="cls-4" x="505" y="1037.85" width="72" height="72"/><rect class="cls-4" x="577" y="1037.85" width="72" height="72"/><rect class="cls-4" x="649" y="1037.85" width="72.93" height="72"/><rect class="cls-4" x="1" y="1109.85" width="72" height="71.21"/><rect class="cls-4" x="73" y="1109.85" width="72" height="71.21"/><rect class="cls-4" x="145" y="1109.85" width="72" height="72"/><rect class="cls-4" x="217" y="1109.85" width="72" height="72"/><rect class="cls-4" x="289" y="1109.85" width="72" height="72"/><rect class="cls-4" x="361" y="1109.85" width="72" height="71.21"/><rect class="cls-4" x="433" y="1109.85" width="72" height="71.21"/><rect class="cls-4" x="505" y="1109.85" width="72" height="71.21"/><rect class="cls-4" x="577" y="1109.85" width="72" height="71.21"/><rect class="cls-4" x="649" y="1109.85" width="73.21" height="71.21"/><rect class="cls-5" x="1" y="29.06" width="721.21" height="1152"/></g></g></g></g></svg>