<svg xmlns="http://www.w3.org/2000/svg" viewBox="0 0 627.08 756.82"><defs><style>.cls-1{font-size:12px;letter-spacing:0.2em;}.cls-1,.cls-3{font-family:HanziPenTC-W3, HanziPenTC W3-B5pc-H;}.cls-2{fill:none;stroke:#000;stroke-miterlimit:10;}.cls-3{font-size:11.75px;letter-spacing:0.2em;}</style></defs><g id="Layer_2" data-name="Layer 2"><g id="CONTACT_US" data-name="CONTACT US"><g id="Anatomy"><circle cx="308.68" cy="125.78" r="77.54"/><path d="M423.07,725.74c0-2,.07-4,.07-6.06V394c0-99.95-51.51-181.72-114.46-181.72h0c-63,0-114.45,81.77-114.45,181.72V719.68c0,2,0,4.05.07,6.06Z"/><text class="cls-1" transform="translate(427.34 212.75) scale(0.98 1)">contact us before you <tspan x="0" y="14.4">start to look like us </tspan></text><text class="cls-1" transform="translate(462.91 9.61) scale(0.98 1)">head</text><polyline class="cls-2" points="486.13 18.03 441.38 18.03 368.56 90.86"/><text class="cls-1" transform="translate(32.5 470.9) scale(0.98 1)">limbs are missing,<tspan x="0" y="14.4">not required for </tspan><tspan x="0" y="28.8">virtual travel </tspan></text><polyline class="cls-2" points="33.31 510.51 127.61 510.51 218.83 709.98"/><line class="cls-2" x1="200.85" y1="455.43" x2="127.61" y2="510.51"/><text class="cls-1" transform="translate(37.37 198.35) scale(0.98 1)">we kind of look like a keyhole <tspan x="0" y="14.4">maybe you are the key </tspan><tspan x="0" y="43.2">come enter blockzero </tspan></text><text class="cls-1" transform="translate(486.54 348.37) scale(0.98 1)">droopy shoulders </text><polyline class="cls-2" points="368.56 248.79 481.05 353.42 597.68 353.42"/><text class="cls-3" transform="translate(462.86 730.74) scale(0.98 1)">sharp corners to<tspan x="24.67" y="14.1">poke you with</tspan></text><polyline class="cls-2" points="413.51 709.98 462.91 756.33 590.03 756.33"/><text class="cls-1" transform="translate(424.14 469.01) scale(0.98 1)">not much else to label</text><text class="cls-1" transform="translate(31.29 323.74) scale(0.98 1)">no neck</text><polyline class="cls-2" points="37 332.43 99.78 332.43 279.61 206.01"/><text/></g></g></g></svg>